<svg width="55" height="54" viewBox="0 0 55 54" fill="none" xmlns="http://www.w3.org/2000/svg">
<path d="M54.5 27C54.5 41.6269 42.4204 53.5 27.5 53.5C12.5796 53.5 0.5 41.6269 0.5 27C0.5 12.3731 12.5796 0.5 27.5 0.5C42.4204 0.5 54.5 12.3731 54.5 27Z" fill="#3B5998" stroke="#3B5998"/>
<path d="M34.5797 10.9951V16.0182H31.0839C30.6865 16.0182 30.1665 16.114 29.736 16.4607C29.2854 16.8237 29.0069 17.4015 29.0069 18.2091V21.8597V22.3597H29.5069H34.5079L33.9631 27.5569H29.5064H29.0064V28.0569V45.2072H22.5719V28.0569V27.5569H22.0719H19.0359V22.3539H22.0719H22.5719V21.8539V17.8399C22.5719 16.4713 22.9051 14.7485 23.9303 13.3807C24.9367 12.038 26.6557 10.9748 29.5716 10.9745C29.5719 10.9745 29.5723 10.9745 29.5726 10.9745L34.5797 10.9951Z" fill="white" stroke="#3B5998"/>
</svg>
