<svg width="56" height="53" viewBox="0 0 56 53" fill="none" xmlns="http://www.w3.org/2000/svg">
<path d="M27.9999 0C43.4628 0 56 11.8654 56 26.5001C56 41.1348 43.463 53 28.0001 53C12.5372 53 0 41.1346 0 26.5001C0 11.8656 12.5353 0 27.9999 0Z" fill="#3B5998"/>
<path d="M37.6634 11.5905H18.3348C14.9766 11.5905 12.2465 14.1759 12.2465 17.3526V35.6476C12.2465 38.8259 14.9783 41.4097 18.3348 41.4097H37.6654C41.0236 41.4097 43.7536 38.8243 43.7536 35.6476V17.3526C43.7534 14.1759 41.0217 11.5905 37.6634 11.5905ZM39.5815 14.9245L40.271 14.9229V19.8718L35.0036 19.8883L34.9861 14.9394C34.9861 14.9394 39.5815 14.9245 39.5815 14.9245ZM28.0001 21.5113C32.3698 21.5113 33.271 25.3936 33.271 26.5015C33.271 29.2492 30.905 31.4884 28.0001 31.4884C25.0934 31.4884 22.7292 29.2492 22.7292 26.5015C22.7272 25.3936 23.6303 21.5113 28.0001 21.5113ZM40.3008 35.2864C40.3008 36.8616 38.9481 38.1435 37.2803 38.1435H18.6602C16.9942 38.1435 15.6397 36.8632 15.6397 35.2864V23.1809H20.0147C19.6087 24.1266 19.3794 25.4185 19.3794 26.5017C19.3794 30.9969 23.2434 34.6555 27.9947 34.6555C32.746 34.6555 36.6081 30.9969 36.6081 26.5017C36.6081 25.4185 36.3788 24.1266 35.9745 23.1809H40.297V35.2864H40.3008Z" fill="white"/>
</svg>
