<svg width="57" height="56" viewBox="0 0 57 56" fill="none" xmlns="http://www.w3.org/2000/svg">
<path d="M28.4999 0C44.2389 0 57 12.537 57 28.0001C57 43.4632 44.2391 56 28.5001 56C12.7611 56 0 43.463 0 28.0001C0 12.5372 12.7591 0 28.4999 0Z" fill="#3B5998"/>
<path d="M40.135 26.5389C42.0568 26.3891 43.3598 25.5623 43.8616 24.4409C43.168 24.8439 41.0162 25.2831 39.8279 24.8644C39.7699 24.6008 39.7049 24.3493 39.6411 24.1235C38.7357 20.9775 35.6355 18.4439 32.3872 18.7496C32.6498 18.6493 32.9172 18.5556 33.1825 18.472C33.5398 18.3505 35.6377 18.0273 35.3078 17.3269C35.0291 16.7109 32.4661 17.7927 31.9835 17.9342C32.6206 17.7076 33.6741 17.3175 33.7865 16.625C32.8105 16.7514 31.8526 17.1882 31.1127 17.8232C31.3795 17.5506 31.5824 17.2191 31.6256 16.8621C29.0216 18.4353 27.5007 21.6071 26.2706 24.6842C25.3044 23.7985 24.4479 23.1006 23.6792 22.7134C21.5239 21.6194 18.9469 20.4782 14.9013 19.0577C14.7772 20.3238 15.5631 22.0079 17.828 23.1275C17.3372 23.0654 16.4408 23.2044 15.7221 23.3667C16.0148 24.8174 16.9688 26.0124 19.5546 26.5906C18.3732 26.6642 17.7627 26.9185 17.2095 27.4666C17.7468 28.4756 19.0599 29.663 21.4206 29.4191C18.7961 30.4894 20.3511 32.4727 22.4874 32.1768C18.8428 35.7383 13.0964 35.4768 9.79688 32.4982C18.4118 43.6042 37.1395 39.0661 39.9292 28.3688C42.0203 28.3854 43.2495 27.6836 44.0115 26.9099C42.8065 27.1035 41.0606 26.9037 40.135 26.5389Z" fill="white"/>
</svg>
